<svg xmlns="http://www.w3.org/2000/svg" xmlns:xlink="http://www.w3.org/1999/xlink" viewBox="0 0 3000 2000"><defs><style>.cls-1{fill:url(#linear-gradient);}.cls-2,.cls-3{fill:#fff;}.cls-3{opacity:0.5;}.cls-4,.cls-5,.cls-6{fill-rule:evenodd;opacity:0.15;}.cls-4{fill:url(#linear-gradient-2);}.cls-5{fill:url(#linear-gradient-3);}.cls-6{fill:url(#linear-gradient-4);}.cls-7{fill:#56477a;}.cls-8{fill:#372b54;}.cls-9{fill:#191726;}.cls-10{fill:#0c0c11;}.cls-11{fill:#2b363f;}</style><linearGradient id="linear-gradient" x1="1500" y1="2000" x2="1500" gradientUnits="userSpaceOnUse"><stop offset="0" stop-color="#b9a1c8"/><stop offset="0.49" stop-color="#504078"/><stop offset="1" stop-color="#121329"/></linearGradient><linearGradient id="linear-gradient-2" x1="496.5" y1="947.74" x2="496.5" y2="1135.47" gradientUnits="userSpaceOnUse"><stop offset="0" stop-color="#fff"/><stop offset="0.22" stop-color="#fff" stop-opacity="0.76"/><stop offset="0.6" stop-color="#fff" stop-opacity="0.36"/><stop offset="0.87" stop-color="#fff" stop-opacity="0.1"/><stop offset="1" stop-color="#fff" stop-opacity="0"/></linearGradient><linearGradient id="linear-gradient-3" x1="1638.72" y1="1118.12" x2="1638.72" y2="1262.51" xlink:href="#linear-gradient-2"/><linearGradient id="linear-gradient-4" x1="2381.77" y1="999.64" x2="2367.55" y2="1167.56" xlink:href="#linear-gradient-2"/></defs><title>Night Sky 4</title><g id="Layer_2" data-name="Layer 2"><g id="Layer_1-2" data-name="Layer 1"><rect class="cls-1" width="3000" height="2000"/><circle class="cls-2" cx="1290.49" cy="798.16" r="4.7"/><circle class="cls-2" cx="1106.03" cy="252.14" r="3.16"/><circle class="cls-3" cx="419.49" cy="786.32" r="3.16"/><circle class="cls-3" cx="2287.24" cy="867.17" r="3.16"/><circle class="cls-3" cx="2472.94" cy="180.35" r="3.16"/><circle class="cls-3" cx="2671.94" cy="260.35" r="3.16"/><circle class="cls-3" cx="2504.94" cy="407.35" r="3.16"/><circle class="cls-3" cx="2760.94" cy="915.35" r="3.16"/><circle class="cls-2" cx="2868.27" cy="640.93" r="4.7"/><circle class="cls-2" cx="2756.66" cy="506.03" r="3.8" transform="translate(16.28 1093.84) rotate(-22.51)"/><circle class="cls-2" cx="147.97" cy="76.45" r="3.8" transform="translate(-18 62.47) rotate(-22.51)"/><circle class="cls-3" cx="143.98" cy="1030.13" r="3.8" transform="translate(-383.38 133.59) rotate(-22.51)"/><circle class="cls-3" cx="208.48" cy="630.58" r="3.8" transform="translate(-225.51 127.84) rotate(-22.51)"/><circle class="cls-2" cx="422.92" cy="597.45" r="5.53" transform="translate(-196.5 207.41) rotate(-22.51)"/><circle class="cls-2" cx="2557.92" cy="627.45" r="5.53" transform="translate(-45.35 1027.01) rotate(-22.51)"/><circle class="cls-2" cx="2034.14" cy="705.63" r="4.7" transform="translate(-15.82 47.39) rotate(-1.33)"/><circle class="cls-2" cx="1610.8" cy="257.03" r="4.7" transform="translate(-5.53 37.44) rotate(-1.33)"/><circle class="cls-3" cx="2157.2" cy="367.39" r="3.16" transform="translate(-7.94 50.14) rotate(-1.33)"/><circle class="cls-3" cx="1499.93" cy="912.18" r="3.16" transform="translate(-20.76 35.04) rotate(-1.33)"/><circle class="cls-3" cx="1979.58" cy="997.68" r="3.16" transform="translate(-22.61 46.19) rotate(-1.33)"/><circle class="cls-2" cx="554.15" cy="193.34" r="4.7" transform="translate(-4.34 12.91) rotate(-1.33)"/><circle class="cls-2" cx="2467.86" cy="780.99" r="5.53" transform="translate(-105.11 1063.99) rotate(-23.84)"/><circle class="cls-2" cx="1931.67" cy="188.6" r="4.7" transform="translate(74.94 753.84) rotate(-22.51)"/><circle class="cls-3" cx="102.82" cy="370.31" r="4.7" transform="translate(-133.93 67.57) rotate(-22.51)"/><circle class="cls-2" cx="880.03" cy="135.14" r="3.16"/><circle class="cls-2" cx="1254.24" cy="632.17" r="3.16"/><circle class="cls-2" cx="1247.24" cy="346.17" r="3.16"/><circle class="cls-2" cx="857.24" cy="592.17" r="3.16"/><circle class="cls-2" cx="1700.24" cy="1001.17" r="3.16"/><circle class="cls-3" cx="1820.24" cy="378.17" r="3.16"/><circle class="cls-3" cx="1814.24" cy="551.17" r="3.16"/><circle class="cls-3" cx="1777.2" cy="701.03" r="3.8" transform="translate(-132.98 733.77) rotate(-22.51)"/><circle class="cls-2" cx="604.65" cy="516.34" r="3.8" transform="translate(-151.6 270.8) rotate(-22.51)"/><circle class="cls-2" cx="751.65" cy="324.34" r="3.8" transform="translate(-66.9 312.45) rotate(-22.51)"/><circle class="cls-2" cx="2148.92" cy="220.45" r="5.53" transform="translate(79.3 839.43) rotate(-22.51)"/><circle class="cls-2" cx="1068.83" cy="603.16" r="3.16" transform="translate(-13.7 24.96) rotate(-1.33)"/><circle class="cls-3" cx="1048.4" cy="1044.01" r="3.8" transform="translate(-332.5 512.76) rotate(-23.84)"/><circle class="cls-3" cx="755.4" cy="798.01" r="3.8" transform="translate(-258.07 373.36) rotate(-23.84)"/><circle class="cls-2" cx="2385.44" cy="410.63" r="5.53" transform="translate(24.52 944.47) rotate(-22.51)"/><circle class="cls-2" cx="345.68" cy="351.29" r="5.53" transform="translate(-108.15 159.09) rotate(-22.51)"/><circle class="cls-2" cx="1610.68" cy="589.29" r="5.53" transform="translate(-102.89 661.49) rotate(-22.51)"/><circle class="cls-2" cx="1295.68" cy="180.29" r="5.53" transform="translate(29.68 509.75) rotate(-22.51)"/><circle class="cls-2" cx="708.67" cy="932.6" r="4.7" transform="translate(-303.03 342.33) rotate(-22.51)"/><path class="cls-4" d="M618.63,1094l-.8,0a27,27,0,0,0-35.46-30.25,51,51,0,0,0-81.44-25.93,44.46,44.46,0,0,0-85.35,11.44,43,43,0,0,0-52.79,52.06c-.58,0-1.17-.06-1.76-.06a27,27,0,1,0,14.69,49.62,51,51,0,0,0,70.67,22.71,63.73,63.73,0,0,0,77.23-4.46,55.2,55.2,0,0,0,65.59-6.9A40.44,40.44,0,1,0,618.63,1094Z"/><path class="cls-5" d="M1747.12,1208.82c-.79,0-1.58,0-2.36.07a50.68,50.68,0,0,0-25-25.78,56.59,56.59,0,0,0-86.85-24.68,63.12,63.12,0,0,0-91.84,49.75c-1.54-.15-3.09-.23-4.67-.23a47.89,47.89,0,1,0,9,94.91,37.42,37.42,0,0,0,59.71-3.87,35.68,35.68,0,0,0,55.31.61,38.31,38.31,0,0,0,66.63-12.3,41.8,41.8,0,1,0,20-78.48Z"/><path class="cls-6" d="M2565.3,1146.43a40.77,40.77,0,0,0-55.14-34.58,34.29,34.29,0,0,0-46.72-17.2,50.06,50.06,0,0,0-81.29,7.92,53.51,53.51,0,0,0-51.75,3,54.16,54.16,0,0,0-76.11-2.22,39.78,39.78,0,0,0-48,29.89,34.68,34.68,0,0,0-3.79.11,34.19,34.19,0,1,0,16.38,65.5,40.78,40.78,0,0,0,65.78,23,50.06,50.06,0,0,0,66.36,5.34,53.49,53.49,0,0,0,54.68-5.68,54.16,54.16,0,0,0,75.32,1.4,39.77,39.77,0,0,0,48.51-32.6A40.72,40.72,0,0,0,2565.3,1146.43Z"/><path class="cls-7" d="M25,1857.53c8.38-13.12,3.93-33.14,2.7-47.48-1.59-18.55-2.75-37.13-4.45-55.67-3.77-41.08-12.24-84.49-9.52-125.8,1.12-17,9.77-26,20.53-38.67,14.38-16.88,26.69-35.15,40.47-52.45,21.88-27.46,57.55-33.82,83-58.3,28.06-27,47.27-62.44,75.32-88.92,12.63-11.92,28.81-19.14,41.6-31.2,13.83-13,25.12-28,40.9-39,15.05-10.46,31.75-18.34,46.76-28.93,13.65-9.63,31.62-28,49.89-27.15,11.31.55,27.55,11.47,36.46,18.49,14.59,11.48,32.72,22.32,46,34.82,15.88-14.37,35.31-14.2,54.31-20.94,20.12-7.13,28.52-13,49.4-3.34,17.34,8,32.24,16.81,52.06,16.21,21.57-.65,32.68-16,51.51-23.39,19.65-7.68,40.08-1.49,59.65-10.31,11.59-5.22,38.78-20,50.74-14.95,6,2.54,8,13.68,13.34,18.34,6.88,6,16.74,8.59,24.7,12.79,18.86,9.95,44.58,19.51,59.44,35,14.48-9.91,33-29.75,51.21-22.26,16.71,6.89,33.6,28.93,46.4,41.17,26.44,0,54.11-3.84,79.89,3.85,21.27,6.35,37.53,22.29,57.75,30.8,18.3,7.7,39.77,10.86,59.5,11.09,25,.29,42.2-10.19,65.6-15.91,20.23-4.94,46.16-7.82,66.61-3.54,27.88,5.84,54,19,83,20.19,49.07,2.08,97.58-15.2,147.16-13,28.47,1.28,56.67,3.3,85.19,3.54,25.73.21,49.39-.31,73.17,10.33,23.29,10.42,42.82,15.24,68.05,18.6,22.1,2.94,50.62,4.75,70,16.39,14.51,8.7,32.48,25.49,42.88,38.92,15.37,19.84,13.43,46.94,32.48,64.87,14.16,13.33,33.32,19.8,49.1,30.81,20.28,14.14,27.25,32.69,39.41,53.27,13.66,23.14,33.36,39.32,51.12,59,18.15,20.11,27.2,43.55,39.25,67.23,9.91,19.47,32.48,31.74,48.11,46.69,23.32,22.3,45.78,45.51,68.21,68.71Z"/><path class="cls-8" d="M2111.68,1453.53c-21.48-5.41-42.84-5-62.94-15.38-15.91-8.21-26.49-24.4-45.49-20.75-7,1.36-13.09,6.74-20.31,7.48-10.64,1.09-17.69-3.9-27.67-6.63-20.3-5.55-36.48,4.62-56.76,5.69-47.82,2.52-94.72,4.69-142.29,10.68-23.52,3-47.76,2.64-71,7.07-22.82,4.35-44.41,13.87-66.87,19.67-45.58,11.77-90.89,24.39-136.61,35.55-20.7,5.05-40.17,11.52-61.55,8.23-21.88-3.37-40.63-3.44-62.67-3.16-22.7.29-40.78-2.79-62.91,2.89-21.23,5.45-42,9.37-63,15.91-21.56,6.69-43.2,8.55-65.42,11.62-16.88,2.33-55.55,4.63-66.16,20,32.23,31.67,76.3,26.74,109.64,53.46,16.85,13.5,37.14,19.29,52.71,34.43,15.82,15.4,33.26,23.86,50.3,37.19,37.28,29.17,77.82,52,120.72,72.12,45.39,21.24,90.27,41.59,141.12,41.92,213.72,1.38,427.49,0,641.21,0h362.45c-10.66-91.39-135.39-127.74-200.53-168.65-44.06-27.67-86.32-58.48-132.64-82.38C2196.67,1515.58,2153.19,1488.91,2111.68,1453.53Z"/><path class="cls-9" d="M3000,1082.53V2000H1068.78c11.77-12,23.27-25.15,38.42-32.73,14.19-7.1,26.7-8.74,39-19.81,25.62-23.06,53.67-39.3,83.65-56.35,12.52-7.12,24.68-15.4,37.54-21.84,9.6-4.8,20.13-5.63,26.42-14.33,16.94-23.46,2.42-50.84,32.82-67.47,28.35-15.51,52.53-10.82,82-18.18,31.63-7.9,61.58-27.74,90-42.87,26.39-14.05,53.62-19.09,75.78-39.78,26.35-24.62,63.12-39.35,97.08-51.17,13.66-4.76,20.2-5.45,29-18.1,7.91-11.36,12.43-20.76,23.23-29.67,26.32-21.7,59-28.24,87.43-46.62,26-16.81,47.54-44.15,75.42-56.42,23.42-10.3,56.39-25.66,74.21-45.13s8.93-48.95,21.81-68.78c7-10.79,21-16.52,28.78-26.9,8.12-10.84,6.65-19.65,21.16-21.73,9.39-1.34,19,4.95,28.07,6.14,14.5,1.9,23.89-3.6,37-8.51,30.73-11.53,65.64-12.89,97.63-20,37.47-8.38,68.4-27.88,107.18-33.27,38-5.29,74.81-24.49,105.32-47.58,14.46-10.94,24.91-15.76,42.07-21,15.15-4.63,30.81-14.49,47-14.11,15.78.37,114.12,3.52,131.18-1.76,17.49-5.42,31.94-17.35,46.82-27.44,14.16-9.6,28-18.51,44.92-22.42,11.48-2.66,71.3-27.32,120.38-35.13,31.76-5.05,56,4,66,2C2978,1084.6,2990,1075,3000,1082.53Z"/><path class="cls-10" d="M0,2000H2008.13c-13-31.5-28.29-58-58.15-76-29-17.55-62.56-25.07-90.75-44.15-20.22-13.69-50-46.35-77.45-40.36-21.55,4.7-12.52,49.55-33.35,34-9.75-7.29-11.57-21-23.13-28.32-12.84-8.17-26.53-13.19-38.88-22.63-25.93-19.83-47.39-45.87-71.58-67.83-12.25-11.12-20.21-21.54-28.51-35.52-8.2-13.82-19.83-20.12-31.12-31.69-15.9-16.3-39.63-66.2-65.83-46.27-15.85-11.9-30.08-26-46-38.07-17.9-13.53-36.59-27.7-52.21-43.83-3.56-3.68-10.39-8.75-12.16-13.82-2.73-7.82,1.77-13.19-1.26-20.61-5.22-12.8-20.35-7.92-27.53-14.24-1.62-1.43-1.88-6.14-2.29-8.19-6-3-11.38-6.1-18-7.56-8.82-15.45-24.64-15.09-38.32-24.89-6.93-5-9.74-7.39-17.64-10.68a43.86,43.86,0,0,1-8.13,1.13,9.6,9.6,0,0,1-3.48-5.16,10,10,0,0,0-3.64-5.35,26.27,26.27,0,0,0-13.24,1.15c-8.05-.65-12.71-.34-20.75-4.16-20.55-9.76-23.64-14.1-43.57,1.72-13.3-10.43-27.35-13.72-42.27-20.5-14.53-6.6-22.28-13.2-39.33-13.16-3,0-12.29,2-14.65,1.24-4.14-1.38-3.46-6.66-8-8.24-18.1-6.33-19.05,8-34.18,13.6-10.55,3.88-16.34-3.14-27.95-.16-14.1,3.62-22.76,16.47-33.43,24.81-11.28,8.81-22.51,18.31-34,27.06-3.27,2.49-18.43,14.06-21.44,14,1.22,0-8.44-18.6-10.3-21-10.63-13.82-17.13-11.4-32.73-14.3-14.47-2.69-20.45-9.06-31.63-15.38-12.52-7.08-28.45-10.77-42.51-17.16-27.78-12.62-55.67-17.9-86.25-19.1-7.87-.31-14.83,1.55-22.61,1.75-6.37.16-11.41-5.11-17.59-1.16-1.37.87-1.37,8.57-2.85,10.57-3.56,4.83-8.3,8.35-11.44,13.91-13.46-24.18-26.67-36.47-54.48-36.67-29.22-.21-52.43-17.54-83.7-10.86-5.6,1.2-11.53,2.21-16.63,4.73-3.41,1.69-6.65,7.76-10,8.43-8.8,1.75-24.44-5.29-33.94-6.82-13.52-2.18-60.64-38.3-71.75-21.39-21.16-5.3-42.57-11.78-61.87-22.23-12.52-6.78-20.08-17.19-33.39-23-24.69-10.74-65-32.29-89.52-18.58-3.36-2.05-9.89-7.2-14.3-6.7-3.82.44-5.72,5.15-7.18,5.38-9.71,1.48-12.76.52-23.53-3.82-27.45-11.06-49.29-15.79-79.15-13.69-9.55.67-11.42,3.57-19.06,6-8.66,2.79-16.94.73-25.23,6.48-9.75,6.76-6.69,14.81-13.2,21.84-4.13,4.46-9.37,2.62-13.82,5.64-6.62,4.5-10.79,11.54-15.88,17.53l-1.3-.37Z"/><path class="cls-11" d="M181.25,1520.91a2.27,2.27,0,0,1,.21-.67C181.32,1520.86,181.25,1521.13,181.25,1520.91Z"/></g></g></svg>