<svg xmlns="http://www.w3.org/2000/svg" xmlns:xlink="http://www.w3.org/1999/xlink" viewBox="0 0 3000 2000"><defs><style>.cls-1{fill:url(#linear-gradient);}.cls-2,.cls-3,.cls-4,.cls-5,.cls-6{fill-rule:evenodd;opacity:0.1;}.cls-2{fill:url(#linear-gradient-2);}.cls-3{fill:url(#linear-gradient-3);}.cls-4{fill:url(#linear-gradient-4);}.cls-5{fill:url(#linear-gradient-5);}.cls-6{fill:url(#linear-gradient-6);}.cls-7,.cls-8{fill:#fff;}.cls-8{opacity:0.5;}.cls-9{fill:#7e5376;}.cls-10{fill:#492c45;}.cls-11{fill:#301e2a;}.cls-12{fill:#1e131b;}</style><linearGradient id="linear-gradient" x1="1500" y1="2000" x2="1500" gradientUnits="userSpaceOnUse"><stop offset="0" stop-color="#d28b93"/><stop offset="0.52" stop-color="#583a69"/><stop offset="1" stop-color="#13071a"/></linearGradient><linearGradient id="linear-gradient-2" x1="2783.88" y1="1256.63" x2="2783.88" y2="1410.91" gradientUnits="userSpaceOnUse"><stop offset="0" stop-color="#fff"/><stop offset="0.22" stop-color="#fff" stop-opacity="0.76"/><stop offset="0.6" stop-color="#fff" stop-opacity="0.36"/><stop offset="0.87" stop-color="#fff" stop-opacity="0.1"/><stop offset="1" stop-color="#fff" stop-opacity="0"/></linearGradient><linearGradient id="linear-gradient-3" x1="878.63" y1="1167.33" x2="878.63" y2="1278.51" xlink:href="#linear-gradient-2"/><linearGradient id="linear-gradient-4" x1="1588.74" y1="1220.54" x2="1588.74" y2="1361.9" xlink:href="#linear-gradient-2"/><linearGradient id="linear-gradient-5" x1="437.39" y1="978.84" x2="437.39" y2="1267.43" xlink:href="#linear-gradient-2"/><linearGradient id="linear-gradient-6" x1="2226.72" y1="1044" x2="2226.72" y2="1296.06" xlink:href="#linear-gradient-2"/></defs><title>Night Sky 1</title><g id="Layer_2" data-name="Layer 2"><g id="Layer_1-2" data-name="Layer 1"><rect class="cls-1" width="3000" height="2000"/><path class="cls-2" d="M2895.62,1339.35c.2-2.31.32-4.63.32-7,0-44.38-36.33-80.35-81.15-80.35a81.28,81.28,0,0,0-67.51,35.76c-1.69-.16-3.4-.25-5.14-.25a53.34,53.34,0,0,0-53.26,50.49,44.16,44.16,0,0,0-9.35-1c-23.9,0-43.28,19-43.28,42.51a42.58,42.58,0,0,0,28.91,40.1,42.63,42.63,0,0,0,70.6,23.3,58.73,58.73,0,0,0,70.31-.28,41.69,41.69,0,0,0,62.16-1.09,53.23,53.23,0,0,0,63.28-52.07A53.05,53.05,0,0,0,2895.62,1339.35Z"/><path class="cls-3" d="M985,1297.88c0-16.92-14-30.63-31.19-30.63a31.81,31.81,0,0,0-6.74.73,38.44,38.44,0,0,0-38.38-36.38c-1.25,0-2.48.06-3.7.18A58.57,58.57,0,0,0,856.35,1206c-32.3,0-58.48,25.92-58.48,57.9,0,1.7.09,3.38.23,5a38.19,38.19,0,0,0,12.5,74.33,38.66,38.66,0,0,0,7.24-.69,30,30,0,0,0,44.79.79,42.32,42.32,0,0,0,50.66.2,30.72,30.72,0,0,0,50.87-16.79A30.68,30.68,0,0,0,985,1297.88Z"/><path class="cls-4" d="M1724,1333.13c0-21.51-17.75-39-39.66-39a40.46,40.46,0,0,0-8.57.92,48.87,48.87,0,0,0-48.8-46.26c-1.59,0-3.16.08-4.71.23a74.47,74.47,0,0,0-61.86-32.77c-41.06,0-74.35,33-74.35,73.62,0,2.16.11,4.29.3,6.41a48.56,48.56,0,0,0,15.89,94.52,49.16,49.16,0,0,0,9.21-.88,38.2,38.2,0,0,0,56.95,1,53.81,53.81,0,0,0,64.42.25,39.06,39.06,0,0,0,64.68-21.35A39,39,0,0,0,1724,1333.13Z"/><path class="cls-5" d="M689.53,1171.14a34.15,34.15,0,0,0-17.43-.12,54.88,54.88,0,0,0-53.55-44,53.94,53.94,0,0,0-70.89-32.3,65.64,65.64,0,0,0-41.25-33.18,66.47,66.47,0,0,0-6.74-1.44,70,70,0,0,0-121.83-9.07A99.4,99.4,0,0,0,276.25,1102a74,74,0,0,0-23.89-11.31,73.28,73.28,0,0,0-90.1,51.72c-10.43,39.18,13,79.54,52.34,90.15A74.16,74.16,0,0,0,232,1235a75.14,75.14,0,0,0,119.66,34.52,75,75,0,0,0,127.12,12,65.39,65.39,0,0,0,119.69-15.41,64.72,64.72,0,0,0-.29-34.45,55.33,55.33,0,0,0,6.53,2.22A54.38,54.38,0,0,0,653,1223.88a34.15,34.15,0,1,0,36.57-52.74Z"/><path class="cls-6" d="M2408.28,1189.54c-1.33,0-2.65,0-4,.12a84.88,84.88,0,0,0-41.82-43.17A94.81,94.81,0,0,0,2217,1105.12a105.76,105.76,0,0,0-153.84,83.35c-2.57-.25-5.18-.38-7.81-.38a80.21,80.21,0,1,0,15.15,159,62.68,62.68,0,0,0,100-6.47,59.77,59.77,0,0,0,92.63,1,64.16,64.16,0,0,0,111.6-20.6,70,70,0,1,0,33.54-131.45Z"/><circle class="cls-7" cx="2865.41" cy="111.99" r="4.7"/><circle class="cls-7" cx="1774.75" cy="1015.79" r="4.7"/><circle class="cls-7" cx="2278.29" cy="872.77" r="3.16"/><circle class="cls-8" cx="963.74" cy="776.95" r="3.16"/><circle class="cls-7" cx="1228.49" cy="848.8" r="3.16"/><circle class="cls-8" cx="2107.49" cy="268.8" r="3.16"/><circle class="cls-8" cx="1081.49" cy="1093.8" r="3.16"/><circle class="cls-8" cx="1276.2" cy="379.99" r="3.16"/><circle class="cls-7" cx="1588.53" cy="815.57" r="4.7"/><circle class="cls-7" cx="1365.92" cy="510.66" r="3.8" transform="translate(-91.44 561.8) rotate(-22.51)"/><circle class="cls-7" cx="2370.92" cy="140.66" r="3.8" transform="translate(126.76 918.35) rotate(-22.51)"/><circle class="cls-7" cx="1454.22" cy="211.09" r="3.8" transform="translate(29.97 572.78) rotate(-22.51)"/><circle class="cls-8" cx="505.46" cy="376.66" r="3.8" transform="translate(-105.69 222.19) rotate(-22.51)"/><circle class="cls-8" cx="204.23" cy="1065.76" r="3.8" transform="translate(-392.44 159.37) rotate(-22.51)"/><circle class="cls-7" cx="1037.91" cy="409.97" r="3.8" transform="translate(-77.88 428.56) rotate(-22.51)"/><circle class="cls-8" cx="656.74" cy="215.21" r="3.8" transform="translate(-32.36 267.8) rotate(-22.51)"/><circle class="cls-7" cx="1730.18" cy="586.08" r="5.53" transform="translate(-92.56 706.99) rotate(-22.51)"/><circle class="cls-7" cx="2180.18" cy="511.08" r="5.53" transform="translate(-29.57 873.54) rotate(-22.51)"/><circle class="cls-7" cx="289.39" cy="574.26" r="4.7" transform="translate(-13.25 6.87) rotate(-1.33)"/><circle class="cls-7" cx="1770.06" cy="352.66" r="4.7" transform="translate(-7.71 41.16) rotate(-1.33)"/><circle class="cls-8" cx="1554.46" cy="537.03" r="3.16" transform="translate(-12.04 36.21) rotate(-1.33)"/><circle class="cls-8" cx="2781.18" cy="718.82" r="3.16" transform="matrix(1, -0.02, 0.02, 1, -15.93, 64.72)"/><circle class="cls-7" cx="2380.08" cy="390.8" r="3.16" transform="translate(-8.43 55.32) rotate(-1.33)"/><circle class="cls-8" cx="2824.84" cy="1090.32" r="3.16" transform="translate(-24.54 65.83) rotate(-1.33)"/><circle class="cls-7" cx="2819.91" cy="387.38" r="4.7" transform="translate(-8.23 65.53) rotate(-1.33)"/><circle class="cls-7" cx="1831.4" cy="111.98" r="4.7" transform="translate(-2.1 42.52) rotate(-1.33)"/><circle class="cls-8" cx="2497.66" cy="815.65" r="3.8" transform="translate(-116.58 1079.01) rotate(-23.84)"/><circle class="cls-7" cx="702.12" cy="1002.62" r="5.53" transform="translate(-345.31 369.29) rotate(-23.84)"/><circle class="cls-7" cx="790.69" cy="580.27" r="5.53" transform="translate(-161.91 346.89) rotate(-22.51)"/><circle class="cls-7" cx="321.94" cy="751.92" r="5.53" transform="translate(-263.33 180.52) rotate(-22.51)"/><circle class="cls-7" cx="656.93" cy="774.24" r="4.7" transform="translate(-246.35 310.46) rotate(-22.51)"/><circle class="cls-8" cx="155.07" cy="164.94" r="4.7" transform="translate(-51.33 71.93) rotate(-22.51)"/><path class="cls-9" d="M1339.6,1557.74c16.74-10.6,35.27-24.84,54.2-30.92,15.76-5.06,25.1-.49,40.85,2.51,18.34,3.5,23.61-5.87,39-6.89,6.45-.43,12.6,4.17,19.32,3.74,10.25-.65,17.52-7.64,26.65-11.85,7.48-3.45,18.24-8.14,26.09-10.18,11.5-3,25.79,3,36.35-2.74,4.59-2.51,6.23-9.65,10.92-12.54,5.5-3.4,13.21-2.58,19.26-4.08,9.15-2.26,17.87-7.35,26.85-8.47,14.44-1.81,31.29,5.59,46.32,5.54,35.57-.12,69,1.29,104,9.25,15,3.41,31.06,5.24,45.87,9.24,16.28,4.4,27.77,18.52,43.81,21.82,8.48,1.75,17.82-1.86,26.22.7,6.22,1.89,10.55,7.59,16.69,9.44,12.34,3.72,53-15.2,60.4-18.07,11.06-4.29,11.12-12.9,24.67-15.57,7.73-1.53,14.79-.08,22.32-3.48,7.09-3.2,11.61-11.27,18.54-14.75s11.2-1.4,17.86-3.28c8.71-2.45,8.08-4.19,15.57-9.65,9.75-7.11,32.58-24.21,44.55-23.79,12.74.45,31.46,18,41.78,25.22,31.17,21.9,61.9,36.38,86,66.3,10.92,13.58,22.58,23.75,31.5,39.11,6.69,11.52,12,29,22.4,37.88,5.35,4.56,18.15,4.32,21.74,10,7.08,11.16-10.33,17.2-19,22.13-44.66,25.38-82.31,58.62-123.77,88.37-89.94,64.56-185.25,129.68-301.65,125.7A1135.59,1135.59,0,0,1,1712.15,1839c-26.89-5.12-54.85-10.81-80-21.91-21-9.25-38.09-25.09-58.41-35.84-33.41-17.68-68.91-31.18-103.51-46.26-21.22-9.25-46.06-17.72-61.08-35.91-18.91-22.9-36-48.79-53.49-72.85-7.15-9.82-17.9-21.38-21.88-33.05C1330.55,1583.82,1329.61,1564,1339.6,1557.74Z"/><path class="cls-10" d="M2083,1990c8.33-12.54-12-44.78-18.37-58-14.31-29.44-35-51.38-52.12-78.28-20.87-32.73-36.13-67.74-76.6-84.37-23.4-9.62-44.55-10.55-66.48-24.81-20.74-13.48-38.27-30.5-57.86-45.26-55.66-41.95-117.28-80.2-175.93-118.61-33.37-21.86-69.58-38.88-98.28-66.27-32.11-30.65-56.39-55.9-95.25-78.41-33.13-19.19-57.37-44.83-97.67-47.38-43.89-2.77-97.19-21-140.14-14.13-26.61,4.25-28.67,22.63-48.59,39.75-28.37,24.38-61.69,53.1-98.85,64.18-47.88,14.28-89.83,14.86-133.38,40.06-35.52,20.55-65.9,37.11-108.38,34.2-46.94-3.22-85.47,16.74-132.39,16.83-36.65.08-73.23-.75-109.9.21-17,21.44-2.06,69.32,2.23,92.44,12,64.62,22.94,130.71,54.14,189.93C655.79,1902.64,686,1951.63,717,2000H2066.23C2074,1996.79,2080.81,1993.33,2083,1990Z"/><path class="cls-11" d="M3000,1477.39c-17-6.22-34-12.27-51.46-17.49-20.54-6.15-39.8-10.19-59.75-18.71-21-9-42.52-23.93-66.48-25-13.08-.58-24.65,3.5-37.76,2.13-12.2-1.27-24-6.62-35.78-9.22-20.05-4.41-40.05-7.74-60-13-45.63-11.94-92-15-135.87-25-32.15-7.37-42.34,13.69-69.1,24.42-19.58,7.85-41.56,7.83-60.46,17.38-24.42,12.33-43.94,20.4-70,30.1-22.59,8.42-39.38,22-64.14,27.1-31.72,6.58-44,1.22-59.88,27.17-12,19.64-22.77,33.09-44,46.94-41.49,27.1-70.49,63.83-107.5,95.63-57.48,49.37-130.29,96.41-174.44,155.54C1849.93,1867,1788.21,1934.22,1725,2000H3000Z"/><path class="cls-12" d="M1869,2000c-9.93-9.75-19.2-20.52-30.08-29.06-13.58-10.66-24.92-15-43.69-19.16-48.41-10.85-83.65-25.55-122.48-58.8-32.44-27.78-60.19-56.41-95-82.21-30.47-22.59-60.65-47.34-92.35-67.9-32.87-21.32-67.78-37.51-99.35-61-17.31-12.9-33.79-28.19-52.35-39-25.53-14.91-54.43-22.65-79.92-37.89-41-24.51-77.31-56.68-120.13-77.8-41.45-20.45-86.73-27.92-129.3-45.6-18.16-7.54-36-15.88-53.93-24-26.87-12.19-38.93-9.69-67.78-7-27.09,2.53-37.25-.88-60.25-14.2-14.13-8.18-29.24-13.61-43.62-20.78-18.42-9.18-35.32-18.51-53.19-27.14-9.56-4.62-19.39-13.62-27.16-17.44-8.89-4.37-18.85-2.59-27.2-7.69-8.51-5.21-15.35-16.35-24-22.18s-19.1-10.41-28.23-15.49c-18.34-10.2-37-14.49-55.61-23.1-23.5-10.87-41.58-27.81-60.21-45.34-15.63-14.7-28.94-16.93-48.66-24.87-23.13-9.3-38.31-30.64-63-20.7-10.79,4.35-21.88,17.17-32.26,25.33-18,14.18-36.07,10.81-53.27,27-15,14-27.16,37.11-44,48.38-12.56,8.43-24.1,10.63-36,19.76-7.54,5.79-13.08,13.66-22.39,18.19-16.61,8.09-30.69,19.22-49.71,31.5-46.78,30.21-109.11,15.83-154,48.33V2000Z"/></g></g></svg>