<svg xmlns="http://www.w3.org/2000/svg" xmlns:xlink="http://www.w3.org/1999/xlink" viewBox="0 0 3000 2000"><defs><style>.cls-1{fill:url(#linear-gradient);}.cls-2,.cls-3{fill:#fff;}.cls-3{opacity:0.5;}.cls-4,.cls-5,.cls-6,.cls-7{fill-rule:evenodd;opacity:0.15;}.cls-4{fill:url(#linear-gradient-2);}.cls-5{fill:url(#linear-gradient-3);}.cls-6{fill:url(#linear-gradient-4);}.cls-7{fill:url(#linear-gradient-5);}.cls-8{fill:#736170;}.cls-9{fill:#493e48;}.cls-10{fill:#2b242b;}.cls-11{fill:#211c21;}</style><linearGradient id="linear-gradient" x1="1500" y1="2000" x2="1500" gradientUnits="userSpaceOnUse"><stop offset="0" stop-color="#b79184"/><stop offset="0.49" stop-color="#4c4b66"/><stop offset="1" stop-color="#111724"/></linearGradient><linearGradient id="linear-gradient-2" x1="646.5" y1="1312.91" x2="646.5" y2="1474.07" gradientUnits="userSpaceOnUse"><stop offset="0" stop-color="#fff"/><stop offset="0.22" stop-color="#fff" stop-opacity="0.76"/><stop offset="0.6" stop-color="#fff" stop-opacity="0.36"/><stop offset="0.87" stop-color="#fff" stop-opacity="0.1"/><stop offset="1" stop-color="#fff" stop-opacity="0"/></linearGradient><linearGradient id="linear-gradient-3" x1="1714.72" y1="1286.22" x2="1714.72" y2="1396.08" xlink:href="#linear-gradient-2"/><linearGradient id="linear-gradient-4" x1="1249.67" y1="1367.79" x2="1249.67" y2="1474.79" xlink:href="#linear-gradient-2"/><linearGradient id="linear-gradient-5" x1="2730.02" y1="1300.79" x2="2730.02" y2="1407.79" xlink:href="#linear-gradient-2"/></defs><title>Night Sky 3</title><g id="Layer_2" data-name="Layer 2"><g id="Layer_1-2" data-name="Layer 1"><rect class="cls-1" width="3000" height="2000"/><circle class="cls-2" cx="436.07" cy="448.36" r="4.7"/><circle class="cls-2" cx="1355.73" cy="826.16" r="4.7"/><circle class="cls-2" cx="962.2" cy="906.14" r="3.16"/><circle class="cls-2" cx="1865.2" cy="158.14" r="3.16"/><circle class="cls-3" cx="2731.74" cy="839.32" r="3.16"/><circle class="cls-3" cx="2372.74" cy="1190.32" r="3.16"/><circle class="cls-2" cx="634.99" cy="524.17" r="3.16"/><circle class="cls-2" cx="737.99" cy="281.17" r="3.16"/><circle class="cls-2" cx="188.99" cy="893.17" r="3.16"/><circle class="cls-3" cx="503.99" cy="123.17" r="3.16"/><circle class="cls-3" cx="185.99" cy="391.17" r="3.16"/><circle class="cls-3" cx="1520.99" cy="939.17" r="3.16"/><circle class="cls-3" cx="1747.29" cy="491.35" r="3.16"/><circle class="cls-3" cx="1874.29" cy="1074.35" r="3.16"/><circle class="cls-3" cx="2400.29" cy="254.35" r="3.16"/><circle class="cls-3" cx="2567.29" cy="401.35" r="3.16"/><circle class="cls-2" cx="2203.95" cy="634.93" r="4.7"/><circle class="cls-2" cx="2315.56" cy="500.03" r="3.8" transform="translate(967.2 2447.79) rotate(-67.49)"/><circle class="cls-2" cx="2278.26" cy="864.45" r="3.8" transform="translate(607.48 2638.22) rotate(-67.49)"/><circle class="cls-3" cx="527.03" cy="897.03" r="3.8" transform="translate(-503.42 1040.5) rotate(-67.49)"/><circle class="cls-3" cx="332.03" cy="1074.03" r="3.8" transform="translate(-787.29 969.59) rotate(-67.49)"/><circle class="cls-3" cx="2827.25" cy="936.13" r="3.8" transform="translate(880.12 3189.65) rotate(-67.49)"/><circle class="cls-2" cx="1284.58" cy="408.34" r="3.8" transform="translate(415.59 1438.74) rotate(-67.49)"/><circle class="cls-2" cx="1137.58" cy="216.34" r="3.8" transform="translate(502.23 1184.44) rotate(-67.49)"/><circle class="cls-3" cx="2762.75" cy="536.58" r="3.8" transform="translate(1209.42 2883.46) rotate(-67.49)"/><circle class="cls-2" cx="1964.31" cy="736.45" r="5.53" transform="translate(531.99 2269.19) rotate(-67.49)"/><circle class="cls-2" cx="2514.31" cy="621.45" r="5.53" transform="translate(977.68 2706.32) rotate(-67.49)"/><circle class="cls-2" cx="238.31" cy="686.45" r="5.53" transform="translate(-487.08 643.81) rotate(-67.49)"/><circle class="cls-2" cx="1735.09" cy="747.63" r="4.7" transform="translate(947.41 2464.9) rotate(-88.67)"/><circle class="cls-2" cx="1360.43" cy="163.03" r="4.7" transform="translate(1165.88 1519.31) rotate(-88.67)"/><circle class="cls-3" cx="1576.02" cy="347.39" r="3.16" transform="translate(1192.17 1914.93) rotate(-88.67)"/><circle class="cls-3" cx="2110.3" cy="775.18" r="3.16" transform="translate(1286.37 2866.94) rotate(-88.67)"/><circle class="cls-2" cx="939.4" cy="528.16" r="3.16" transform="translate(389.59 1455.06) rotate(-88.67)"/><circle class="cls-3" cx="1870.65" cy="861.68" r="3.16" transform="translate(965.8 2711.84) rotate(-88.67)"/><circle class="cls-2" cx="2071.57" cy="443.74" r="4.7" transform="translate(1579.88 2504.46) rotate(-88.67)"/><circle class="cls-2" cx="2417.08" cy="99.34" r="4.7" transform="translate(2261.69 2513.47) rotate(-88.67)"/><circle class="cls-3" cx="836.82" cy="768.01" r="3.8" transform="translate(-203.87 1223.07) rotate(-66.16)"/><circle class="cls-3" cx="810.82" cy="1123.01" r="3.8" transform="translate(-544.08 1410.81) rotate(-66.16)"/><circle class="cls-2" cx="2604.36" cy="774.99" r="5.53" transform="translate(842.95 2843.98) rotate(-66.16)"/><circle class="cls-2" cx="131.79" cy="123.63" r="5.53" transform="translate(-32.88 198.06) rotate(-67.49)"/><circle class="cls-2" cx="579.55" cy="249.29" r="5.53" transform="translate(127.39 689.25) rotate(-67.49)"/><circle class="cls-2" cx="884.55" cy="167.29" r="5.53" transform="translate(391.38 920.41) rotate(-67.49)"/><circle class="cls-2" cx="1132.56" cy="630.6" r="4.7" transform="translate(116.43 1435.49) rotate(-67.49)"/><circle class="cls-3" cx="2868.41" cy="276.31" r="4.7" transform="translate(1515.06 2820.43) rotate(-67.49)"/><path class="cls-4" d="M751.34,1438.48l-.69,0a23.2,23.2,0,0,0-30.44-26,43.77,43.77,0,0,0-69.91-22.26,38.17,38.17,0,0,0-73.27,9.83,36.93,36.93,0,0,0-45.32,44.69c-.5,0-1-.05-1.51-.05a23.16,23.16,0,1,0,12.61,42.6,43.79,43.79,0,0,0,60.67,19.49,54.71,54.71,0,0,0,66.3-3.83,47.38,47.38,0,0,0,56.31-5.92,34.71,34.71,0,1,0,25.26-58.59Z"/><path class="cls-5" d="M1797.2,1355.23c-.6,0-1.2,0-1.8.05a38.56,38.56,0,0,0-19-19.62,43.06,43.06,0,0,0-66.08-18.78,48,48,0,0,0-69.88,37.85c-1.17-.11-2.35-.17-3.55-.17a36.44,36.44,0,1,0,6.88,72.22,28.47,28.47,0,0,0,45.43-2.94,27.15,27.15,0,0,0,42.08.46,29.15,29.15,0,0,0,50.7-9.36,31.8,31.8,0,1,0,15.24-59.72Z"/><path class="cls-6" d="M1380.5,1468.05a27,27,0,0,0-34.49-25.93,22.73,22.73,0,0,0-29.9-14,33.19,33.19,0,0,0-54.14.69,35.48,35.48,0,0,0-34.35-.94,35.91,35.91,0,0,0-50.16-5.72,26.37,26.37,0,0,0-33.39,17.06,23,23,0,0,0-2.51-.14,22.67,22.67,0,1,0,7.15,44.19,27,27,0,0,0,42.17,18.87,33.19,33.19,0,0,0,43.54,7.24,35.46,35.46,0,0,0,36.44-.69,35.91,35.91,0,0,0,49.68,5.14,26.36,26.36,0,0,0,33.87-18.82A27,27,0,0,0,1380.5,1468.05Z"/><path class="cls-7" d="M2838.13,1372.09a23,23,0,0,0-2.51.14,26.37,26.37,0,0,0-33.39-17.06,35.91,35.91,0,0,0-50.16,5.72,35.48,35.48,0,0,0-34.35.94,33.19,33.19,0,0,0-54.14-.69,22.73,22.73,0,0,0-29.9,14,27,27,0,1,0-8.41,52.88,26.36,26.36,0,0,0,33.87,18.82,35.91,35.91,0,0,0,49.68-5.14,35.46,35.46,0,0,0,36.44.69,33.19,33.19,0,0,0,43.54-7.24,27,27,0,0,0,42.17-18.87,22.68,22.68,0,1,0,7.15-44.19Z"/><path class="cls-8" d="M2294.24,1635.39s-42-24.76-52.51-30-14.25-12-30.76-12-36,1.5-45,0-27.76-24-42-24.76-22.51,11.25-42,9-26.26,4.5-48,12-40.51,17.25-66.76,19.5-21-8.25-45.76,2.25-29.26,20.25-41.26,24-38.26,15.75-52.51,16.5-39,12-58.51,20.25-32.26,15-46.51,15-27,3.75-39.76,6.75-25.51,9-54,16.5-57.76,28.51-70.52,33-39.76,24-60,26.26-45,11.25-69,12.75-45,11.25-48.76,18.75,93.77,39.76,105,39.76,120.78,7.5,144,7.5,65.26,3,87,0,260.31-7.5,283.56-21,91.52,1.5,135-21,85.52-36,132.78-50.26,75-29.26,75-36.76-27-70.52-33.76-73.52S2300.44,1639,2294.24,1635.39Z"/><path class="cls-9" d="M527,1820.34c39.73-25.68,77.88-54.06,116.77-81,21.53-14.91,42.63-29.88,66.76-40.39,14.67-6.39,27.92-14.86,42.09-22.21,15.82-8.21,30.63-8.72,48-10.21,30.69-2.63,60.5-11.87,90.57-18.06,40-8.23,79.24-4.4,119.66-6.42a247.08,247.08,0,0,0,44.88-6.67c13.4-3.21,23.66-9.12,35.89-14.87,31.77-14.94,67.76-16.46,101.78-22.5,15.52-2.76,27.56,7.89,42.66,9.33,16,1.53,32.95,3.9,48.85.47,17.26-3.72,35-7.52,52.08-11.84,12.31-3.12,17.8-9.93,31.08-8.52,12.54,1.33,24.65,3.25,37.3,3s18.44-8.85,30.08-12.46c9.93-3.08,22.27.16,32.57.26,4.53,0,9.49.32,13.82-1.25,8-2.92,12.3-8.42,21.2-5.37,22.08,7.55,42.13,22.55,63.35,32.34,20.91,9.65,40,24.73,62.8,29.49,10.09,2.11,22.16,3.46,31.51,8,7.43,3.59,12.15,10.61,19.81,14.14,19.07,8.78,40.66,7.44,59.85,16.7,13.92,6.72,29.38,11.79,40.6,22.93,8.1,8,16.93,13.71,26.36,20.2,9.76,6.71,19.45,13.19,30,18.53,12.34,6.25,23.67,18,34.56,26.86,20,16.18,40,32.55,59.59,49.22,11.51,9.82,22.84,19.86,34.17,29.87,8.34,7.37,15.47,12.39,6.89,22.93-7.15,8.79-19.24,19.47-30.34,23-37.36,11.8-76.69,18.91-114.88,27.36-45.43,10.06-90.91,20-136.61,28.75-34.47,6.6-69.25,5.28-104.26,4.43-65.48-1.59-129.85-7.71-194.6-17.22-105.3-15.47-212.08-22.81-318.08-31.69-70.6-5.91-141-9.56-210.82-22-53.76-9.58-107.43-19.71-161.3-28.73-22.44-3.76-44.93-7.48-67.53-10.14-19.47-2.29-38.5-.88-58.06-1.4-13.57-.36-27.82-.73-41.08-3.94C529.44,1829.87,517.88,1826.24,527,1820.34Z"/><path class="cls-10" d="M1226.63,1881.15s-168.08-56.4-245.37-98.7-174.6-74.53-233.5-112.8-204.87-80.57-304.74-98.7-166.45-6-240.72-36.22-146-70.54-163.89-78.6-38.41,2-38.41,2V2000H1621s-133.16-48.34-174.14-50.36-51.22,0-125.48-26.19S1257.1,1891.68,1226.63,1881.15Z"/><path class="cls-11" d="M849,2000s141-66.75,176.7-78.14,115.54-35.82,130.83-37.44,62.87-14.65,86.65-19.54,57.77-14.65,85-22.79,25.49-13,59.47-14.65,78.16,11.4,103.64,14.65,34,11.4,56.07,3.26,47.57-11.68,86.65-18,86.65-6.37,98.55-12.88,39.08-13,52.67-13,49.27-13,64.56-19.54,79.43-16.28,93.23-21.16,81.77-60.24,107.25-66.75,76.46-39.07,108.74-50.47,66.26-30.27,81.55-42.4,51-53.65,62.86-55.28,47.57-26.41,64.56-29.48,122.33,1.45,132.53,0,51,12.28,76.46-1.1,73.06-26.4,79.86-31.28,49.27-60.24,56.07-65.12,73.06-40.7,81.55-47.21,49.27-16.28,61.17-24.42,40.78-17.91,59.47-22.79,40.6-5.37,59.47-11.4c25.49-8.14,25.49-5.62,25.49-5.62V2000Z"/></g></g></svg>